<?xml version="1.0" standalone="no"?>
<!DOCTYPE svg PUBLIC "-//W3C//DTD SVG 20010904//EN"
 "http://www.w3.org/TR/2001/REC-SVG-20010904/DTD/svg10.dtd">
<svg version="1.0" xmlns="http://www.w3.org/2000/svg"
 width="1024.000000pt" height="1024.000000pt" viewBox="0 0 1024.000000 1024.000000"
 preserveAspectRatio="xMidYMid meet">
<metadata>
Created by potrace 1.14, written by Peter Selinger 2001-2017
</metadata>
<g transform="translate(0.000000,1024.000000) scale(0.100000,-0.100000)"
fill="#000000" stroke="none">
<path d="M4290 7063 l0 -958 522 2 c288 0 528 2 533 2 8 1 11 152 10 477 0
306 4 478 10 483 13 10 1420 7 1465 -3 157 -36 292 -202 337 -415 24 -112 20
-351 -7 -401 -5 -10 -7 -20 -4 -23 14 -14 -79 -169 -141 -233 -30 -31 -81 -64
-89 -57 -3 3 -6 1 -6 -5 0 -7 -5 -12 -10 -12 -6 0 -32 -11 -59 -24 -43 -20
-81 -34 -108 -37 -5 -1 -28 -8 -53 -15 -37 -12 -349 -14 -1850 -14 -993 1
-1810 1 -1816 0 -7 0 -10 -52 -9 -162 1 -90 3 -165 4 -168 0 -3 520 -5 1154
-5 l1152 0 5 -73 c3 -41 3 -76 0 -79 -3 -2 -5 -10 -5 -16 0 -8 -41 -12 -140
-12 l-140 0 0 -73 c-1 -40 3 -76 8 -79 11 -7 2045 -6 2197 1 58 3 119 9 137
15 17 5 34 7 37 3 3 -3 6 1 6 8 0 7 3 10 7 7 3 -4 11 -2 18 3 6 5 20 11 31 13
31 5 114 48 114 60 0 5 3 7 7 4 3 -4 13 -1 21 5 8 7 22 17 31 23 67 41 95 64
166 141 44 48 88 95 98 106 9 10 17 21 18 26 3 21 41 82 51 82 6 0 9 3 5 6 -3
3 5 27 18 52 39 79 68 146 71 162 2 8 12 47 24 85 12 39 23 79 26 90 6 31 22
130 30 195 7 52 7 309 0 355 -3 22 -8 71 -11 108 -2 37 -7 72 -10 76 -2 5 -7
26 -11 47 -11 78 -57 228 -94 310 -69 151 -97 205 -134 259 -59 87 -98 138
-120 158 -10 9 -17 17 -14 17 2 0 -29 34 -69 75 -41 41 -76 75 -79 75 -3 0
-25 16 -49 36 -23 20 -45 35 -47 33 -2 -2 -15 6 -28 19 -28 26 -160 96 -160
84 0 -4 -4 -2 -8 4 -8 12 -71 42 -98 47 -11 2 -26 7 -34 10 -8 3 -28 9 -45 13
-16 4 -32 8 -35 9 -3 0 -23 5 -45 10 -22 4 -47 11 -55 14 -8 3 -626 6 -1372 8
l-1358 3 0 -957z"/>
<path d="M1679 5828 c-5 -17 -2 -138 4 -138 5 0 5 -5 2 -11 -11 -16 -12 -69
-2 -69 4 0 5 -6 0 -12 -15 -24 -13 -89 2 -94 21 -9 323 -10 344 -2 17 6 18 21
18 167 l-1 161 -183 0 c-101 0 -183 -1 -184 -2z"/>
<path d="M2362 5797 c1 -19 -2 -39 -6 -45 -4 -7 -3 -12 3 -12 6 0 8 -7 5 -15
-9 -22 -10 -145 -2 -145 4 0 4 -10 0 -22 -11 -31 -4 -55 16 -59 9 -2 87 -2
172 1 l155 5 2 163 1 162 -174 0 -173 0 1 -33z"/>
<path d="M4288 4883 c-2 -5 -3 -57 -2 -118 0 -60 -3 -112 -7 -115 -4 -3 -140
-5 -303 -4 -177 1 -299 -3 -302 -8 -8 -13 -7 -278 1 -286 8 -8 4405 -10 4410
-2 2 4 -12 24 -31 46 -19 21 -42 51 -51 67 -10 15 -21 27 -25 27 -4 0 -8 5 -8
11 0 6 -11 23 -24 37 -67 75 -98 112 -93 112 3 0 -10 16 -29 36 -19 20 -34 41
-34 46 0 5 -6 15 -12 22 -7 7 -26 30 -43 51 -16 20 -35 42 -41 49 -6 6 -10 16
-10 21 1 12 -3391 19 -3396 8z"/>
<path d="M3043 4642 c-17 -3 -23 -10 -24 -30 -2 -79 2 -255 5 -261 4 -5 331
-7 357 -2 11 2 6 291 -6 292 -23 3 -311 4 -332 1z"/>
<path d="M4306 4060 c-10 -4 -12 -184 -12 -914 l1 -910 72 1 c48 1 71 -3 66
-10 -4 -6 -1 -7 8 -1 22 14 120 15 112 1 -4 -7 0 -6 10 1 18 15 41 7 31 -10
-4 -7 -2 -8 5 -4 6 4 9 11 6 15 -8 13 497 10 514 -3 11 -8 13 -8 7 2 -6 10 16
12 104 9 70 -2 114 1 118 8 8 12 10 1803 2 1813 -6 8 -1024 10 -1044 2z"/>
<path d="M6403 4057 c-10 -5 -36 -31 -58 -59 -22 -27 -54 -65 -71 -83 -16 -19
-39 -50 -49 -69 -17 -31 -17 -38 -5 -62 8 -15 30 -43 48 -63 18 -20 49 -60 69
-88 20 -29 40 -53 45 -53 4 0 8 -6 8 -14 0 -8 7 -16 15 -20 8 -3 14 -9 13 -13
-2 -4 6 -17 17 -29 34 -35 55 -64 55 -73 0 -5 4 -11 8 -13 8 -3 74 -86 102
-128 8 -12 29 -37 47 -56 17 -18 37 -43 43 -54 12 -23 30 -46 68 -88 12 -14
22 -28 22 -31 0 -3 14 -21 30 -40 17 -18 30 -37 30 -40 0 -4 15 -22 33 -41 18
-19 41 -49 52 -67 35 -56 198 -263 206 -263 5 0 9 -6 9 -13 0 -8 11 -24 25
-37 14 -13 25 -29 25 -35 0 -6 13 -25 30 -41 16 -16 30 -32 30 -36 0 -7 12
-23 55 -73 11 -12 38 -48 60 -79 22 -31 44 -56 50 -57 5 0 85 0 178 -1 124 0
165 -3 160 -11 -4 -7 1 -6 10 2 14 11 20 11 34 0 9 -8 14 -9 10 -3 -5 9 80 12
331 12 185 0 358 1 385 1 l48 1 -66 88 c-36 48 -78 102 -93 120 -15 19 -29 39
-31 45 -2 7 -10 17 -16 22 -6 6 -45 55 -86 109 -106 142 -112 150 -126 164 -7
7 -13 19 -13 27 0 7 -4 15 -9 17 -8 2 -103 124 -176 224 -11 15 -30 39 -42 52
-13 14 -23 32 -23 40 0 8 -3 13 -6 9 -4 -3 -38 38 -76 91 -39 53 -77 102 -84
108 -8 6 -14 14 -14 17 0 3 -10 17 -22 30 -31 32 -52 64 -47 72 2 3 -4 11 -13
16 -10 6 -18 17 -18 25 0 8 -3 13 -7 11 -5 -3 -24 16 -43 42 -19 25 -45 57
-57 71 -13 14 -23 29 -23 34 0 5 -13 22 -30 38 -16 15 -30 32 -30 36 0 4 -16
25 -35 47 -19 22 -39 45 -45 52 -5 7 -10 17 -10 23 0 5 -4 10 -8 10 -5 0 -24
21 -43 48 -33 46 -42 58 -86 110 l-23 27 -374 0 c-206 0 -383 -3 -393 -8z"/>
<path d="M4325 2220 c-3 -6 1 -7 9 -4 18 7 21 14 7 14 -6 0 -13 -4 -16 -10z"/>
<path d="M4685 2220 c-3 -6 1 -7 9 -4 18 7 21 14 7 14 -6 0 -13 -4 -16 -10z"/>
<path d="M5150 2226 c0 -2 7 -7 16 -10 8 -3 12 -2 9 4 -6 10 -25 14 -25 6z"/>
<path d="M7506 2222 c-3 -5 1 -9 9 -9 8 0 12 4 9 9 -3 4 -7 8 -9 8 -2 0 -6 -4
-9 -8z"/>
<path d="M7695 2220 c-3 -5 -1 -10 4 -10 6 0 11 5 11 10 0 6 -2 10 -4 10 -3 0
-8 -4 -11 -10z"/>
<path d="M7855 2220 c-3 -5 -1 -10 4 -10 6 0 11 5 11 10 0 6 -2 10 -4 10 -3 0
-8 -4 -11 -10z"/>
</g>
</svg>
